<svg width="720" height="720" viewBox="0 0 720 720" fill="none" xmlns="http://www.w3.org/2000/svg">
<rect width="720" height="720" rx="130" fill="#FB4226"/>
<path d="M570.997 530.617C579.076 517.152 579.076 503.688 570.997 490.224L395.964 185.936C387.885 172.472 374.421 167.086 360.957 167.086C347.493 167.086 334.029 175.164 325.95 185.936L269.401 285.57L282.865 293.648C325.95 317.884 360.957 352.89 385.192 395.976C406.735 433.675 420.199 474.067 422.892 517.152H382.5C379.807 482.146 369.036 447.139 350.186 414.825C331.336 377.126 301.715 347.505 264.016 325.962L250.552 317.884L196.695 409.44L210.159 417.518C245.166 439.061 269.401 474.067 274.787 514.46H185.924C183.231 514.46 180.538 511.767 180.538 511.767C180.538 511.767 177.845 509.074 180.538 506.381L204.774 463.296C196.695 455.218 185.924 449.832 175.153 447.139L150.917 490.224C142.839 503.688 142.839 517.152 150.917 530.617C158.996 544.081 169.767 549.466 185.924 549.466H309.794V533.309C309.794 503.688 301.715 476.76 288.251 449.832C277.48 428.289 261.323 412.132 242.473 398.668L261.323 363.662C285.558 382.511 307.101 404.054 323.258 430.982C342.107 463.296 350.186 498.303 350.186 533.309V549.466H455.206V533.309C455.206 479.453 441.742 425.597 412.121 377.126C390.578 334.041 355.572 299.034 315.179 272.106L355.572 202.093C358.264 199.4 360.957 199.4 360.957 199.4C363.65 199.4 363.65 199.4 366.343 202.093L541.376 506.381C544.069 509.074 541.376 511.767 541.376 511.767C541.376 511.767 538.683 514.46 535.99 514.46H495.598V546.773H535.99C552.147 549.466 562.919 544.081 570.997 530.617Z" fill="white"/>
</svg>
